HIERARCHY
ROOT Hips
{
	OFFSET 0.00000 0.00000 0.00000
	CHANNELS 6 Xposition Yposition Zposition Zrotation Yrotation Xrotation 
	JOINT RightUpLegDummy
	{
		OFFSET 0 0 0
		CHANNELS 3 Zrotation Yrotation Xrotation
		JOINT RightUpLeg
		{
			OFFSET -3.52197 -3.41223 0.04002
			CHANNELS 3 Zrotation Yrotation Xrotation
			JOINT RightLeg
			{
				OFFSET 0.00006 -17.42390 1.60435
				CHANNELS 3 Zrotation Yrotation Xrotation
				JOINT RightFoot
				{
					OFFSET 0.06154 -16.50078 -1.63900
					CHANNELS 3 Zrotation Yrotation Xrotation
					JOINT RightToes
					{
						OFFSET 0.00298 -1.73825 3.34613
						CHANNELS 3 Zrotation Yrotation Xrotation
						End Site
						{
							OFFSET 0.00480 -0.05416 3.85043
						}
					}
				}
			}
		}
	}
	JOINT SpineDummy
	{
		OFFSET 0 0 0
		CHANNELS 3 Zrotation Yrotation Xrotation
		JOINT Spine
		{
			OFFSET 0.00000 4.68130 0.00000
			CHANNELS 3 Zrotation Yrotation Xrotation
			JOINT Spine1
			{
				OFFSET -0.00000 10.10138 0.05002
				CHANNELS 3 Zrotation Yrotation Xrotation
				JOINT HEadDummy
				{
					OFFSET 0 0 0
					CHANNELS 3 Zrotation Yrotation Xrotation
					JOINT Head
					{
						OFFSET -0.00000 3.43865 0.00438
						CHANNELS 3 Zrotation Yrotation Xrotation
						End Site
						{
							OFFSET -0.11417 5.02924 0.98962
						}
					}
				}
				JOINT LeftShoulder1Dummy
				{
					OFFSET 0 0 0
					CHANNELS 3 Zrotation Yrotation Xrotation
					JOINT LeftShoulder1
					{
						OFFSET 3.53937 -0.14262 -0.08662
						CHANNELS 3 Zrotation Yrotation Xrotation
						JOINT LeftArm
						{
							OFFSET 4.04833 -0.00133 0.12681
							CHANNELS 3 Zrotation Yrotation Xrotation
							JOINT LeftForeArm
							{
								OFFSET 10.33880 -0.01036 -0.55515
								CHANNELS 3 Zrotation Yrotation Xrotation
								JOINT LeftHand
								{
									OFFSET 8.69677 0.07543 0.40060
									CHANNELS 3 Zrotation Yrotation Xrotation
									End Site
									{
										OFFSET 5.28377 -0.21905 0.59205
									}
								}
							}
						}
					}
				}
				JOINT RightShoulderDummy
				{
					OFFSET 0 0 0
					CHANNELS 3 Zrotation Yrotation Xrotation
					JOINT RightShoulder
					{
						OFFSET -3.53937 -0.14262 -0.08660
						CHANNELS 3 Zrotation Yrotation Xrotation
						JOINT RightArm
						{
							OFFSET -4.04833 -0.00133 0.12683
							CHANNELS 3 Zrotation Yrotation Xrotation
							JOINT RightForeArm
							{
								OFFSET -10.37987 -0.01039 -0.55511
								CHANNELS 3 Zrotation Yrotation Xrotation
								JOINT RightHand
								{
									OFFSET -8.67398 0.07538 0.40058
									CHANNELS 3 Zrotation Yrotation Xrotation
									End Site
									{
										OFFSET -5.24810 -0.21916 0.59204
									}
								}
							}
						}
					}
				}
			}
		}
	}
	JOINT LeftUpLegDummy
	{
		OFFSET 0 0 0
		CHANNELS 3 Zrotation Yrotation Xrotation
		JOINT LeftUpLeg
		{
			OFFSET 3.52197 -3.41223 0.04002
			CHANNELS 3 Zrotation Yrotation Xrotation
			JOINT LeftLeg
			{
				OFFSET -0.00012 -17.42399 1.60337
				CHANNELS 3 Zrotation Yrotation Xrotation
				JOINT LeftFoot
				{
					OFFSET -0.09972 -16.50070 -1.63802
					CHANNELS 3 Zrotation Yrotation Xrotation
					JOINT LeftToes
					{
						OFFSET -0.01575 -1.73823 3.34611
						CHANNELS 3 Zrotation Yrotation Xrotation
						End Site
						{
							OFFSET 0.03150 -0.01868 3.85031
						}
					}
				}
			}
		}
	}
}
MOTION
Frames: 6
Frame Time: 0.033333
-1.4085 40.3193 0.0026 149.5580 88.3576 150.3030 0.0000 0.0000 0.0000 -2.3568 -5.7502 1.1642 -0.5309 -6.0797 1.0982 3.5233 -0.2963 -2.1738 -0.0000 -0.0000 0.0000 0.0000 0.0000 0.0000 -0.7868 -0.3056 -3.6508 -0.3912 -0.1763 6.0719 0.0000 0.0000 0.0000 -0.0242 -0.2062 -1.8456 0.0000 0.0000 0.0000 -0.1144 2.4423 0.0908 -1.8802 -22.9072 -43.7232 -6.2748 5.4705 35.8757 2.8279 -2.0392 -0.1628 0.0000 0.0000 0.0000 0.7259 -2.4949 0.0865 -0.6108 20.7396 -39.0635 5.2476 -5.4341 37.6749 -2.2842 1.5967 -0.1232 0.0000 0.0000 0.0000 -2.4470 -1.4587 1.6348 0.8450 7.8866 -0.3580 2.1633 -0.1678 -1.9354 0.0000 0.0000 0.0000
-1.4198 40.3191 0.0111 149.0900 88.3524 149.7720 0.0000 0.0000 0.0000 -2.3837 -5.7951 1.2122 -0.4925 -6.0357 1.1042 3.4795 -0.2935 -2.1615 -0.0000 -0.0000 0.0000 0.0000 0.0000 0.0000 -0.6439 -0.3230 -3.4302 -0.5698 -0.1592 5.7518 0.0000 0.0000 0.0000 -0.0667 -0.1364 -1.7205 0.0000 0.0000 0.0000 -0.2156 2.3303 0.1015 -1.8173 -22.7366 -43.6261 -6.3051 5.4665 36.0572 2.6604 -1.9712 -0.1511 0.0000 0.0000 0.0000 0.8734 -2.5536 0.0865 -0.8219 20.6875 -39.0393 5.3215 -5.4452 37.1308 -2.6310 1.2292 -0.1389 0.0000 0.0000 0.0000 -2.4378 -1.4191 1.6740 0.8154 7.7818 -0.3181 2.3648 -0.1807 -1.8640 0.0000 0.0000 0.0000
-1.4433 40.3177 0.0254 148.9490 88.3006 149.5100 0.0000 0.0000 0.0000 -2.4506 -5.9069 1.3050 -0.4101 -5.9588 1.1256 3.4537 -0.2919 -2.1496 -0.0000 -0.0000 0.0000 0.0000 0.0000 0.0000 -0.5745 -0.3593 -3.0498 -0.6292 -0.1870 5.2201 0.0000 0.0000 0.0000 -0.0899 -0.0699 -1.5193 0.0000 0.0000 0.0000 -0.4379 2.0771 0.1262 -1.6170 -22.3974 -43.3284 -6.4443 5.4576 36.4416 2.6669 -1.9264 -0.1509 0.0000 0.0000 0.0000 1.0312 -2.6005 0.0865 -1.1450 20.5413 -38.9589 5.4458 -5.4544 36.6514 -3.2093 1.0687 -0.1690 0.0000 0.0000 0.0000 -2.4271 -1.3692 1.7647 0.7621 7.6267 -0.3007 2.5906 -0.1952 -1.7611 0.0000 0.0000 0.0000
-1.4711 40.3149 0.0377 150.4030 88.2036 150.8400 0.0000 0.0000 0.0000 -2.5015 -6.0139 1.4093 -0.3322 -5.9331 1.1311 3.5241 -0.2965 -2.1355 -0.0000 -0.0000 0.0000 0.0000 0.0000 0.0000 -0.7390 -0.4098 -2.7012 -0.3430 -0.3006 4.7624 0.0000 0.0000 0.0000 -0.0587 -0.1086 -1.3487 0.0000 0.0000 0.0000 -0.7191 1.8231 0.1527 -1.2840 -22.0878 -42.9526 -6.6453 5.4440 37.0161 2.9221 -1.9828 -0.1679 0.0000 0.0000 0.0000 1.0425 -2.5985 0.0865 -1.4595 20.4316 -38.8791 5.5567 -5.4548 36.5954 -3.5739 1.2153 -0.1922 0.0000 0.0000 0.0000 -2.3892 -1.3271 1.8329 0.7170 7.4378 -0.2654 2.5498 -0.1926 -1.7406 0.0000 0.0000 0.0000
-1.4978 40.3133 0.0436 152.5630 88.1541 152.8930 0.0000 0.0000 0.0000 -2.4856 -6.0409 1.5072 -0.2978 -5.9575 1.0999 3.6366 -0.3038 -2.0997 -0.0000 -0.0000 0.0000 0.0000 0.0000 0.0000 -0.9377 -0.4585 -2.3946 0.0435 -0.4348 4.3793 0.0000 0.0000 0.0000 -0.0224 -0.1860 -1.1884 0.0000 0.0000 0.0000 -1.0094 1.6536 0.1729 -0.8417 -21.8407 -42.5981 -6.8460 5.4252 37.8155 3.1924 -2.1086 -0.1873 0.0000 0.0000 0.0000 0.9818 -2.5661 0.0876 -1.8256 20.4423 -38.8777 5.6199 -5.4505 36.7797 -3.5158 1.2382 -0.1896 0.0000 0.0000 0.0000 -2.3010 -1.2615 1.8576 0.6855 7.2202 -0.1715 2.3117 -0.1773 -1.8132 0.0000 0.0000 0.0000
-1.5218 40.3130 0.0430 153.3220 88.2362 153.5650 0.0000 0.0000 0.0000 -2.4282 -6.0005 1.5682 -0.2979 -5.9305 1.0638 3.6918 -0.3080 -2.0422 -0.0000 -0.0000 0.0000 0.0000 0.0000 0.0000 -0.9307 -0.4731 -2.0691 0.1884 -0.4862 3.9266 0.0000 0.0000 0.0000 -0.0043 -0.2017 -0.9393 0.0000 0.0000 0.0000 -1.2423 1.5040 0.1910 -0.3232 -21.5214 -42.2105 -7.0642 5.4035 38.7211 3.2966 -2.1886 -0.1957 0.0000 0.0000 0.0000 1.0306 -2.5128 0.0928 -2.3285 20.4602 -38.9291 5.6513 -5.4432 37.1154 -3.2860 1.0603 -0.1729 0.0000 0.0000 0.0000 -2.1870 -1.1469 1.8964 0.6319 7.0559 -0.1187 2.1376 -0.1657 -1.8866 0.0000 0.0000 0.0000
